PathFileType	4	(X/Y/Z)	D:\TRACE\spotREDO_2-26-24\spot_justBody_Motion_3_3-v60.trc
DataRate	CameraRate	NumFrames	NumMarkers	Units	OrigDataRate	OrigDataStartFrame	OrigNumFrames
100.00	100.00	      27	9	mm	100.00	1751	      7000
Frame#	Time	front left toe			Front right toe			aft left toe			aft right toe			Arm			FL body			FR body			AL Body			AR Body			
		X1	Y1	Z1	X2	Y2	Z2	X3	Y3	Z3	X4	Y4	Z4	X5	Y5	Z5	X6	Y6	Z6	X7	Y7	Z7	X8	Y8	Z8	X9	Y9	Z9	

1751	17.500	-447.50400	20.29907	-156.83803	87.00137	19.93383	-179.92714	-317.27258	21.72784	322.36862	147.39633	80.07284	273.83594	-197.23360	809.64917	-363.86694	-277.59656	549.20435	-327.42413	-123.05685	552.83295	-351.97861	-148.08119	563.45508	546.90424	-9.47714	567.45404	526.93921	
1752	17.510	-447.71060	19.92814	-157.15143	86.75154	20.02035	-180.06487	-318.03168	21.68800	322.21738	149.22612	93.14875	268.33224	-199.38437	807.93823	-365.32950	-279.14429	548.99127	-328.82874	-124.48017	552.44250	-353.12714	-150.17946	563.47607	545.66138	-11.57156	567.72101	525.90570	
1753	17.520	-447.74283	19.93003	-157.29404	86.32993	19.95289	-180.22112	-318.37097	21.66949	322.19046	148.76862	104.78717	265.24945	-200.83298	806.77936	-366.81204	-280.55856	548.72467	-329.69116	-126.08553	552.27301	-354.18030	-151.94130	563.25092	544.79980	-12.66376	567.43042	525.00024	
1754	17.530	-447.83984	19.82495	-157.30945	86.18396	19.92671	-180.41550	-318.47870	21.59445	322.12265	147.26041	113.14957	265.96808	-202.21367	807.06219	-367.89206	-282.22003	548.51471	-330.68948	-127.54831	552.04108	-355.03027	-153.46622	563.11395	543.60309	-13.77705	567.00293	523.92242	
1755	17.540	-448.09680	19.58763	-157.30899	85.99597	19.90576	-180.50632	-318.44528	21.66193	322.06839	145.62250	121.50978	270.52502	-203.40355	807.39526	-368.84378	-283.46109	548.02405	-331.55969	-129.02248	551.93695	-356.09036	-154.56100	562.91394	542.75385	-14.98818	566.71075	522.97272	
1756	17.550	-448.48987	19.30574	-157.29410	85.72944	19.81594	-180.67860	-318.42795	21.84289	321.97778	148.68132	129.64264	274.42181	-204.51552	807.20959	-369.41592	-284.88062	548.23218	-332.63593	-130.34167	551.72839	-357.04828	-155.86084	562.84845	541.70093	-15.93257	566.57520	521.97894	
1757	17.560	-448.90613	19.01905	-157.43095	85.40429	19.71175	-180.73901	-318.56439	22.04498	321.91113	149.97110	136.19427	276.36447	-205.78105	807.09589	-370.41870	-286.23380	548.04608	-333.56097	-131.70555	551.54803	-357.99701	-157.16144	562.68951	541.03064	-17.29285	566.47363	521.23187	
1758	17.570	-448.93463	18.96712	-157.62558	85.28001	19.66639	-180.84062	-318.86560	22.24018	321.82111	154.56844	143.35666	276.30750	-206.77846	806.70880	-371.19095	-287.16138	547.65515	-334.32687	-132.56006	551.41217	-358.54321	-158.57030	562.65833	540.09650	-18.93017	566.53168	520.58118	
1759	17.580	-449.04019	18.94171	-157.89952	85.21692	19.69699	-180.91354	-318.98618	22.32188	321.57654	156.96390	147.64076	275.88141	-208.04478	806.31329	-372.04156	-287.83374	547.46735	-335.11624	-133.30609	551.21405	-359.25226	-160.06625	562.55328	539.53162	-20.42557	566.64001	519.98596	
1760	17.590	-449.12448	18.74316	-158.09799	85.07719	19.42401	-181.09959	-319.27576	22.60050	321.39554	159.15556	148.84698	276.28961	-209.35590	806.09735	-372.84586	-288.79526	547.23401	-335.80600	-134.28244	551.13440	-359.88162	-161.53754	562.57751	538.88733	-21.42995	566.63947	519.46320	
1761	17.600	-449.19247	18.57689	-158.20105	84.74106	19.23840	-181.46161	-319.44388	22.72638	321.19989	160.69746	148.42502	277.62781	-210.22252	806.06110	-373.31378	-289.53909	547.02087	-336.27484	-135.18878	551.11365	-360.41431	-162.42143	562.58209	538.41547	-22.59439	566.84601	518.86340	
1762	17.610	-449.23422	18.44267	-158.26607	84.58750	19.04220	-181.68919	-319.68652	23.02985	321.08664	161.50420	146.62415	280.07986	-210.98720	805.97607	-373.77707	-290.78174	547.19562	-336.81415	-136.04916	551.16638	-361.01428	-163.23247	562.49988	537.78888	-23.48227	566.77667	518.21100	
1763	17.620	-449.45102	18.17681	-158.36316	84.54510	18.87265	-181.84233	-319.76447	23.28891	320.99222	162.34203	145.89943	282.06232	-211.70863	806.12311	-374.28104	-291.34937	547.13794	-337.37357	-136.85129	551.17114	-361.41711	-163.78369	562.46936	537.24646	-24.15300	566.62018	517.81995	
1764	17.630	-449.62595	17.89604	-158.52507	84.45029	18.80071	-181.96101	-319.79596	23.48404	320.93393	164.05669	145.83646	283.82953	-211.96541	806.06866	-374.71219	-292.33170	547.33527	-337.71228	-137.74120	551.09338	-361.98038	-164.51112	562.41620	536.83002	-24.93949	566.52777	517.22345	
1765	17.640	-449.72742	17.74221	-158.65199	84.49033	18.51529	-181.98399	-319.80737	23.75496	320.86774	167.19193	146.84460	285.00201	-212.94258	806.18079	-375.15829	-292.95697	547.27814	-338.20392	-138.37463	551.06598	-362.29691	-165.06441	562.37189	536.43378	-25.69339	566.57349	516.81586	
1766	17.650	-449.63193	17.43503	-158.74794	84.44723	18.32832	-182.05632	-319.78699	23.88966	320.80090	169.29042	147.82410	286.45975	-213.63089	806.07825	-375.57776	-293.40219	547.16254	-338.47049	-138.98598	551.01300	-362.68454	-165.97510	562.26447	536.03064	-26.03262	566.57703	516.59784	
1767	17.660	-449.63568	17.31830	-158.82474	84.46722	18.20871	-182.11462	-319.71429	24.07366	320.75839	172.22932	148.43962	287.82751	-214.45863	805.91241	-375.78049	-293.90149	546.95874	-338.88229	-139.38441	550.95032	-363.01880	-166.26576	562.32452	535.81989	-26.53770	566.57062	516.30865	
1768	17.670	-449.63217	17.04176	-159.03778	84.34563	18.05097	-182.23546	-319.62137	24.26312	320.70331	173.50137	147.89328	289.05371	-215.17546	805.82312	-376.14322	-294.66629	546.76385	-339.30142	-139.80963	550.87109	-363.29990	-166.80464	562.49231	535.54919	-27.14752	566.77307	515.98132	
1769	17.680	-449.66608	16.83262	-159.17188	84.21169	17.83831	-182.53467	-319.57635	24.47156	320.64474	175.35310	146.17953	290.59821	-215.90092	805.64227	-376.66739	-294.80624	546.52136	-339.35580	-140.30249	550.73553	-363.62900	-167.51451	562.85504	535.20807	-27.74845	567.27960	515.66577	
1770	17.690	-449.75922	16.58032	-159.40233	84.16849	17.56789	-182.82187	-319.84436	25.14009	320.29614	177.07184	141.77061	291.80704	-216.11824	805.42841	-377.02011	-295.17215	546.28064	-339.71982	-140.54121	550.62378	-363.79025	-167.96683	563.11414	535.04041	-28.18868	567.51331	515.46973	
1771	17.700	-449.76923	16.31149	-159.56644	84.15964	17.30606	-183.06073	-319.96585	25.59791	319.95624	178.80247	134.85872	292.54883	-216.41399	805.25525	-377.20206	-295.29785	546.11182	-339.85260	-140.74367	550.53912	-363.92084	-168.63470	563.60620	534.79315	-28.64603	567.99097	515.34302	
1772	17.710	-449.74780	16.13871	-159.64223	84.18587	17.19767	-183.04539	-320.12659	25.90773	319.83453	180.31174	126.15814	293.36722	-216.67914	805.13605	-377.36713	-295.39395	545.95325	-339.91919	-140.90416	550.45728	-363.93994	-168.89458	563.58521	534.76483	-28.88157	568.14191	515.27667	
1773	17.720	-449.67801	15.94598	-159.75078	84.29868	17.07563	-183.03485	-320.11435	26.06877	319.72195	181.52380	115.35533	293.79803	-216.73401	805.14648	-377.45596	-295.61340	546.00952	-340.06216	-141.06714	550.48077	-363.97961	-168.99300	563.63635	534.74609	-29.05343	568.16473	515.27319	
1774	17.730	-449.65573	15.90741	-159.91507	84.50734	16.84085	-183.09085	-320.07355	26.28979	319.58362	183.19601	103.92284	294.61835	-216.64433	805.32629	-377.37631	-295.68903	546.23120	-339.86029	-141.30731	550.58276	-363.96643	-169.06502	563.66156	534.76624	-29.27647	568.10217	515.28107	
1775	17.740	-449.60312	15.77403	-160.01860	84.36794	16.66414	-183.36002	-320.02319	26.50333	319.49646	184.84555	92.65308	295.85452	-216.65622	805.62097	-377.22495	-295.89267	546.49133	-339.80609	-141.46623	550.72864	-363.95703	-169.13864	563.62128	534.78015	-29.27179	567.96167	515.28851	
1776	17.750	-449.49033	15.60721	-160.17603	84.46379	16.35853	-183.57625	-319.88861	26.79735	319.40701	185.69899	81.85617	297.33484	-216.73343	805.87750	-377.12421	-296.23163	546.68109	-339.66122	-141.59578	550.93964	-363.90280	-169.06233	563.62012	534.80084	-29.22572	567.88147	515.31866	
1777	17.760	-449.43323	15.40276	-160.37607	84.52790	16.06744	-183.85442	-319.69333	27.10070	319.19922	186.64362	71.33781	298.75089	-216.92027	805.97754	-376.98248	-296.29755	546.78107	-339.64096	-141.68633	550.98773	-363.85553	-169.14156	563.81866	534.82166	-29.21004	567.88422	515.35083	
